<svg width="14" height="10" viewBox="0 0 14 10" fill="none" xmlns="http://www.w3.org/2000/svg">
<path d="M5.01563 9.66212C4.89606 9.66099 4.7776 9.63895 4.66561 9.597C4.55179 9.55155 4.44907 9.48214 4.36443 9.3935L0.864186 5.89326C0.775325 5.80935 0.706498 5.70651 0.662814 5.59236C0.61913 5.47822 0.601708 5.35571 0.611843 5.23391C0.611048 4.98733 0.707579 4.75039 0.880466 4.57456C0.967395 4.48646 1.0715 4.41715 1.18632 4.37094C1.30114 4.32474 1.42423 4.30261 1.54795 4.30594C1.66699 4.30153 1.78555 4.3233 1.89526 4.36971C2.00497 4.41613 2.10315 4.48606 2.18288 4.57456L5.01563 7.43988L11.8289 0.618477C11.9144 0.531257 12.0173 0.462993 12.1309 0.418117C12.2445 0.373241 12.3662 0.352757 12.4882 0.357994C12.6112 0.355006 12.7335 0.376496 12.8481 0.421214C12.9627 0.465932 13.0673 0.532986 13.1557 0.618477C13.3129 0.803795 13.3992 1.0389 13.3992 1.28189C13.3992 1.52489 13.3129 1.75999 13.1557 1.94531L5.66684 9.4342C5.5822 9.52284 5.47948 9.59225 5.36566 9.6377C5.25125 9.66589 5.13285 9.67415 5.01563 9.66212V9.66212Z" fill="white"/>
</svg>
