<svg width="20" height="20" viewBox="0 0 20 20" fill="none" xmlns="http://www.w3.org/2000/svg">
<g clip-path="url(#clip0_1_514)">
<path d="M9.9756 11.3083L5.9756 15.3083C5.88813 15.396 5.78422 15.4656 5.66982 15.5131C5.55543 15.5605 5.43279 15.585 5.30894 15.585C5.18508 15.585 5.06245 15.5605 4.94805 15.5131C4.83365 15.4656 4.72974 15.396 4.64227 15.3083C4.47109 15.1286 4.3756 14.8899 4.3756 14.6417C4.3756 14.3935 4.47109 14.1547 4.64227 13.975L8.64227 9.975L4.64227 5.975C4.55404 5.88843 4.48477 5.78446 4.43887 5.6697C4.39296 5.55493 4.37142 5.43187 4.3756 5.30834C4.37215 5.18483 4.39394 5.06192 4.43962 4.94713C4.48531 4.83233 4.55393 4.72806 4.64129 4.64069C4.72866 4.55333 4.83293 4.48471 4.94773 4.43902C5.06252 4.39334 5.18543 4.37155 5.30894 4.375C5.43247 4.37082 5.55553 4.39236 5.6703 4.43827C5.78506 4.48417 5.88903 4.55344 5.9756 4.64167L9.9756 8.64167L13.9756 4.64167C14.1073 4.50965 14.2752 4.4197 14.4581 4.38323C14.641 4.34677 14.8306 4.36542 15.0028 4.43682C15.1751 4.50823 15.3223 4.62917 15.4258 4.78433C15.5292 4.93948 15.5843 5.12186 15.5839 5.30834C15.5865 5.43241 15.5635 5.55569 15.5161 5.67042C15.4688 5.78515 15.3983 5.88885 15.3089 5.975L11.3089 9.975L15.3089 13.975C15.4857 14.1518 15.5851 14.3916 15.5851 14.6417C15.5851 14.8917 15.4857 15.1315 15.3089 15.3083C15.1321 15.4851 14.8923 15.5845 14.6423 15.5845C14.3922 15.5845 14.1524 15.4851 13.9756 15.3083L9.9756 11.3083Z"/>
</g>
<defs>
<clipPath id="clip0_1_514">
<rect width="11.2083" height="11.2083" transform="translate(4.375 4.375)"/>
</clipPath>
</defs>
</svg>
