<svg width="24" height="24" viewBox="0 0 24 24" fill="none" xmlns="http://www.w3.org/2000/svg">
<path fill-rule="evenodd" clip-rule="evenodd" d="M2.88803 1.57694C3.52976 1.24996 4.36984 1.24996 6.05 1.24996H8.78024C9.58187 1.24996 9.98268 1.24996 10.3446 1.34143C10.9426 1.49258 11.4795 1.8244 11.8821 2.2917C12.1258 2.57447 12.305 2.93297 12.6635 3.64996C12.9025 4.12796 13.022 4.36696 13.1845 4.55547C13.4529 4.867 13.8108 5.08822 14.2095 5.18899C14.4508 5.24996 14.718 5.24996 15.2524 5.24996H16.35C18.5902 5.24996 19.7103 5.24996 20.566 5.68594C21.3186 6.06943 21.9305 6.68135 22.314 7.434C22.75 8.28965 22.75 9.40975 22.75 11.65V16.35C22.75 18.5902 22.75 19.7103 22.314 20.5659C21.9305 21.3186 21.3186 21.9305 20.566 22.314C19.7103 22.75 18.5902 22.75 16.35 22.75H7.65C5.40979 22.75 4.28969 22.75 3.43404 22.314C2.68139 21.9305 2.06947 21.3186 1.68597 20.5659C1.25 19.7103 1.25 18.5902 1.25 16.35V6.04996C1.25 4.3698 1.25 3.52973 1.57698 2.88799C1.8646 2.3235 2.32354 1.86456 2.88803 1.57694ZM12.75 11C12.75 10.5857 12.4142 10.25 12 10.25C11.5858 10.25 11.25 10.5857 11.25 11V15.1893L10.0303 13.9696C9.73744 13.6767 9.26256 13.6767 8.96967 13.9696C8.67678 14.2625 8.67678 14.7374 8.96967 15.0303L11.4697 17.5303C11.7626 17.8232 12.2374 17.8232 12.5303 17.5303L15.0303 15.0303C15.3232 14.7374 15.3232 14.2625 15.0303 13.9696C14.7374 13.6767 14.2626 13.6767 13.9697 13.9696L12.75 15.1893V11Z" fill="#717578"/>
</svg>
