<svg width="24" height="24" viewBox="0 0 24 24" fill="none" xmlns="http://www.w3.org/2000/svg">
<path d="M13.4458 12.0515L15.5905 14.5029L18.4744 16.3459L18.9772 12.0666L18.4744 7.88281L15.5352 9.50201L13.4458 12.0515Z" fill="#00832D"/>
<path d="M1 15.9496V19.5953C1 20.4288 1.67509 21.1039 2.50857 21.1039H6.15429L6.90857 18.3482L6.15429 15.9496L3.65257 15.1953L1 15.9496Z" fill="#0066DA"/>
<path d="M6.15429 3L1 8.15429L3.65257 8.90857L6.15429 8.15429L6.896 5.78834L6.15429 3Z" fill="#E94235"/>
<path d="M6.15429 8.1543H1V15.9486H6.15429V8.1543Z" fill="#2684FC"/>
<path d="M21.768 5.18225L18.4743 7.88259V16.3457L21.7831 19.0586C22.2784 19.4458 23.0025 19.0925 23.0025 18.4627V5.76556C23.0025 5.12819 22.2621 4.7787 21.768 5.18225ZM13.4457 12.0513V15.9484H6.1543V21.1027H16.9657C17.7992 21.1027 18.4743 20.4276 18.4743 19.5941V16.3457L13.4457 12.0513Z" fill="#00AC47"/>
<path d="M16.9657 3H6.1543V8.15429H13.4457V12.0514L18.4743 7.88526V4.50857C18.4743 3.67509 17.7992 3 16.9657 3Z" fill="#FFBA00"/>
</svg>
