<svg width="24" height="24" viewBox="0 0 24 24" fill="none" xmlns="http://www.w3.org/2000/svg">
<path fill-rule="evenodd" clip-rule="evenodd" d="M12.0001 2.25C6.61535 2.25 2.25013 6.61523 2.25013 12C2.25013 12.5563 2.29671 13.1017 2.3862 13.6325C1.73048 14.418 1.22664 15.1958 0.93883 15.9288C0.620391 16.7398 0.522508 17.6206 0.958182 18.3752C1.39847 19.1378 2.2225 19.4929 3.09536 19.6193C3.97888 19.7473 5.04972 19.6658 6.21611 19.4271C8.55698 18.948 11.4549 17.7997 14.375 16.1138C17.3256 14.4103 19.7899 12.4517 21.3739 10.6479C22.1468 9.76771 22.7392 8.89161 23.0612 8.07155C23.3796 7.26054 23.4775 6.37976 23.0418 5.62516C22.606 4.87032 21.7939 4.51471 20.932 4.38507C20.1532 4.26794 19.2276 4.3155 18.2193 4.49075C16.5315 3.09127 14.364 2.25 12.0001 2.25ZM19.5548 5.83603C20.2114 6.63971 20.7422 7.55009 21.1173 8.53718C21.3624 8.16925 21.5449 7.82922 21.665 7.52333C21.9029 6.91727 21.8536 6.56709 21.7428 6.37516C21.6319 6.18317 21.3532 5.96529 20.7089 5.86839C20.3834 5.81943 19.9969 5.8075 19.5548 5.83603ZM4.44565 18.1643C3.78901 17.3605 3.25811 16.45 2.88295 15.4628C2.63771 15.8309 2.4552 16.171 2.33506 16.477C2.09708 17.0831 2.14641 17.4332 2.25722 17.6252C2.36921 17.8191 2.65293 18.0396 3.31038 18.1348C3.63223 18.1814 4.01234 18.1923 4.44565 18.1643ZM12.0001 21.75C10.224 21.75 8.55885 21.2751 7.12465 20.4453L7.21617 20.4269C9.55704 19.9479 12.4549 18.7996 15.3751 17.1136C17.9597 15.6214 20.1713 13.9334 21.7448 12.3252C21.5733 17.5594 17.2761 21.75 12.0001 21.75Z"/>
</svg>
