<svg width="16" height="16" viewBox="0 0 16 16" fill="none" xmlns="http://www.w3.org/2000/svg">
<path fill-rule="evenodd" clip-rule="evenodd" d="M13.7323 3.90461C13.8308 4.01081 13.8866 4.14968 13.8889 4.29451C13.9176 6.25269 13.6032 12.9022 8.09351 14.3803C7.99563 14.4063 7.89263 14.4063 7.79476 14.3803C2.2855 12.9009 1.97109 6.25269 2.0011 4.29451C2.0034 4.14962 2.05922 4.0107 2.15779 3.90449C2.25637 3.79827 2.39075 3.73227 2.53506 3.71919C5.01769 3.48697 7.04371 2.16021 7.71035 1.6749C7.77836 1.6253 7.86035 1.59857 7.94452 1.59857C8.0287 1.59857 8.11069 1.6253 8.1787 1.6749C8.84664 2.16021 10.8723 3.48697 13.3553 3.71919C13.4995 3.73237 13.6338 3.79841 13.7323 3.90461ZM7.06424 10.0655C6.99422 10.0375 6.93097 9.99494 6.87869 9.94063L5.38999 8.45193C5.33487 8.39934 5.29213 8.33514 5.26489 8.26397C5.23821 8.19425 5.22707 8.11958 5.2322 8.04516C5.23356 7.8988 5.29166 7.75855 5.39441 7.65405C5.44747 7.60027 5.51121 7.55777 5.58129 7.52957C5.64974 7.50202 5.72301 7.4885 5.79674 7.48977C5.87001 7.48783 5.94286 7.50159 6.0104 7.53016C6.07828 7.55888 6.13917 7.60188 6.18893 7.65621L7.27573 8.7555L10.06 5.96793C10.1126 5.91438 10.1759 5.87246 10.2458 5.84487C10.3141 5.81786 10.3873 5.80516 10.4607 5.80755C10.5333 5.8065 10.6054 5.81953 10.6731 5.84593C10.7425 5.87301 10.8058 5.91361 10.8593 5.96538L10.8653 5.97111L10.8706 5.9774C10.9631 6.08644 11.0139 6.22478 11.0139 6.36777C11.0139 6.51075 10.9631 6.64909 10.8706 6.75814L10.8662 6.76335L7.67156 9.95798C7.61929 10.0123 7.55604 10.0548 7.48602 10.0828L7.4753 10.0871L7.4641 10.0898C7.39928 10.1058 7.33228 10.1109 7.26583 10.105C7.19809 10.1034 7.13107 10.0905 7.06758 10.0668L7.06424 10.0655ZM5.42045 8.20461C5.42306 8.21142 5.42588 8.21814 5.4289 8.22476C5.42585 8.2181 5.42301 8.21133 5.42038 8.20447C5.40177 8.15583 5.39435 8.10363 5.39867 8.05173C5.39833 7.94666 5.43946 7.8457 5.51313 7.77078C5.55017 7.73324 5.59453 7.70371 5.64345 7.68402C5.69238 7.66433 5.74482 7.6549 5.79754 7.65632C5.84827 7.65444 5.89879 7.66372 5.94553 7.68349C5.99228 7.70327 6.03411 7.73307 6.06809 7.77078L7.27513 8.99169L10.1783 6.08508C10.2147 6.04792 10.2585 6.01883 10.3069 5.99971C10.3553 5.98059 10.4072 5.97186 10.4592 5.97409C10.5116 5.97282 10.5637 5.98198 10.6126 6.00103C10.6614 6.02009 10.7059 6.04866 10.7436 6.08508C10.7658 6.11116 10.7846 6.13956 10.7999 6.16962C10.7846 6.13961 10.7658 6.11126 10.7437 6.08523C10.706 6.0488 10.6615 6.02023 10.6126 6.00117C10.5638 5.98212 10.5117 5.97296 10.4593 5.97423C10.4073 5.972 10.3554 5.98073 10.307 5.99985C10.2586 6.01897 10.2148 6.04806 10.1783 6.08523L7.27519 8.99183L6.06815 7.77092C6.03418 7.73321 5.99234 7.70341 5.9456 7.68363C5.89885 7.66386 5.84833 7.65458 5.79761 7.65646C5.74489 7.65504 5.69244 7.66447 5.64351 7.68416C5.59459 7.70385 5.55023 7.73338 5.51319 7.77092C5.43952 7.84584 5.39839 7.9468 5.39873 8.05187C5.39441 8.10377 5.40183 8.15597 5.42045 8.20461Z" fill="#717578"/>
</svg>
