<svg width="18" height="18" viewBox="0 0 18 18" fill="none" xmlns="http://www.w3.org/2000/svg">
<path fill-rule="evenodd" clip-rule="evenodd" d="M4.43456 1.11728C5.62106 0.926352 7.12322 0.874969 9 0.874969C10.8768 0.874969 12.3789 0.926352 13.5654 1.11728C14.7529 1.30836 15.6981 1.64979 16.3996 2.28751C17.1089 2.93236 17.4901 3.80752 17.6997 4.89758C17.9073 5.9773 17.9583 7.33233 17.9583 8.99999C17.9583 10.6677 17.9073 12.0227 17.6997 13.1024C17.4901 14.1925 17.1089 15.0676 16.3996 15.7125C15.6981 16.3502 14.7529 16.6916 13.5654 16.8827C12.3789 17.0736 10.8768 17.125 9 17.125C7.12322 17.125 5.62106 17.0736 4.43456 16.8827C3.24715 16.6916 2.3019 16.3502 1.60041 15.7125C0.891076 15.0676 0.509935 14.1925 0.30031 13.1024C0.0926706 12.0227 0.0416679 10.6677 0.0416679 8.99999C0.0416679 7.33233 0.0926706 5.9773 0.30031 4.89758C0.509935 3.80752 0.891076 2.93236 1.60041 2.28751C2.3019 1.64979 3.24715 1.30836 4.43456 1.11728ZM7.0254 5.9561C7.22134 5.84516 7.46181 5.84819 7.65489 5.96404L11.8216 8.46404C12.0098 8.57699 12.125 8.78044 12.125 8.99997C12.125 9.21951 12.0098 9.42295 11.8216 9.53591L7.65489 12.0359C7.46181 12.1518 7.22134 12.1548 7.0254 12.0438C6.82945 11.9329 6.70833 11.7251 6.70833 11.5V6.49997C6.70833 6.2748 6.82945 6.06704 7.0254 5.9561Z" fill="#FF0000"/>
</svg>
