<svg width="197" height="44" viewBox="0 0 197 44" fill="none" xmlns="http://www.w3.org/2000/svg">
<g clip-path="url(#clip0_1_442)">
<path d="M61.2291 6.87113C60.5086 4.16511 58.3926 2.03857 55.7002 1.31421C50.8253 3.93391e-07 31.2683 0 31.2683 0C31.2683 0 11.7115 3.93391e-07 6.8364 1.31421C4.14407 2.03857 2.02827 4.16511 1.30757 6.87113C3.91404e-07 11.7709 0 22 0 22C0 22 3.91404e-07 32.2291 1.30757 37.129C2.02827 39.835 4.14407 41.9615 6.8364 42.6857C11.7115 44 31.2683 44 31.2683 44C31.2683 44 50.8253 44 55.7002 42.6857C58.3926 41.9615 60.5086 39.835 61.2291 37.129C62.5368 32.2291 62.5368 22 62.5368 22C62.5368 22 62.5315 11.7709 61.2291 6.87113Z" fill="white"/>
<path d="M25.0087 31.4279L41.2555 22.0009L25.0087 12.5737V31.4279Z" fill="#FF0000"/>
<path d="M75.7408 28.6079L68.7191 3.12061H74.8451L77.3059 14.6742C77.9339 17.5199 78.392 19.9466 78.6906 21.9541H78.8707C79.0767 20.5157 79.5401 18.1046 80.2556 14.7156L82.8037 3.12061H88.9297L81.8205 28.6079V40.8342H75.7358V28.6079H75.7408Z" fill="white"/>
<path d="M90.7726 40.0262C89.5372 39.188 88.6568 37.884 88.1317 36.1146C87.6118 34.3451 87.3494 31.9962 87.3494 29.0572V25.0576C87.3494 22.0929 87.6479 19.7077 88.2451 17.9123C88.8422 16.1169 89.774 14.8027 91.0403 13.9801C92.3068 13.1574 93.9694 12.7435 96.0287 12.7435C98.057 12.7435 99.6785 13.1626 100.904 14.0008C102.124 14.8389 103.019 16.1532 103.586 17.933C104.152 19.7181 104.435 22.0929 104.435 25.0576V29.0572C104.435 31.9962 104.157 34.3554 103.606 36.1352C103.056 37.9203 102.16 39.2243 100.924 40.0468C99.6888 40.8696 98.0106 41.2835 95.8948 41.2835C93.712 41.2885 92.0082 40.8644 90.7726 40.0262ZM97.7017 35.7111C98.0414 34.8108 98.2165 33.3465 98.2165 31.308V22.7243C98.2165 20.7477 98.0467 19.299 97.7017 18.3883C97.3567 17.4725 96.7546 17.0172 95.8895 17.0172C95.0558 17.0172 94.4637 17.4725 94.124 18.3883C93.779 19.3042 93.6091 20.7477 93.6091 22.7243V31.308C93.6091 33.3465 93.7738 34.8159 94.1034 35.7111C94.4328 36.6113 95.0247 37.0614 95.8895 37.0614C96.7546 37.0614 97.3567 36.6113 97.7017 35.7111Z" fill="white"/>
<path d="M124.363 40.8395H119.534L118.999 37.466H118.865C117.552 40.0116 115.585 41.2843 112.96 41.2843C111.143 41.2843 109.799 40.6842 108.934 39.4891C108.07 38.2886 107.637 36.4157 107.637 33.8701V13.2825H113.81V33.5078C113.81 34.7393 113.943 35.6136 114.211 36.1363C114.479 36.6588 114.927 36.9226 115.555 36.9226C116.09 36.9226 116.605 36.7572 117.099 36.4261C117.593 36.0947 117.954 35.6756 118.195 35.1688V13.2773H124.363V40.8395Z" fill="white"/>
<path d="M141.13 8.11268H135.004V40.8384H128.965V8.11268H122.839V3.12491H141.13V8.11268Z" fill="white"/>
<path d="M156.017 40.8395H151.188L150.653 37.466H150.519C149.206 40.0116 147.24 41.2843 144.614 41.2843C142.797 41.2843 141.454 40.6842 140.589 39.4891C139.724 38.2886 139.291 36.4157 139.291 33.8701V13.2825H145.464V33.5078C145.464 34.7393 145.598 35.6136 145.865 36.1363C146.133 36.6588 146.581 36.9226 147.209 36.9226C147.744 36.9226 148.259 36.7572 148.753 36.4261C149.248 36.0947 149.608 35.6756 149.85 35.1688V13.2773H156.017V40.8395Z" fill="white"/>
<path d="M176.444 17.6851C176.068 15.9467 175.466 14.6894 174.632 13.9081C173.798 13.1268 172.65 12.7388 171.188 12.7388C170.056 12.7388 168.995 13.0596 168.012 13.7063C167.029 14.3531 166.267 15.1964 165.731 16.2468H165.685V1.72842H159.739V40.8338H164.836L165.464 38.2261H165.598C166.076 39.1574 166.792 39.8869 167.744 40.4303C168.697 40.9684 169.757 41.2375 170.92 41.2375C173.005 41.2375 174.545 40.2699 175.528 38.3398C176.511 36.4047 177.005 33.3883 177.005 29.2802V24.9185C177.005 21.8399 176.815 19.4236 176.444 17.6851ZM170.787 28.9282C170.787 30.9357 170.704 32.5087 170.539 33.647C170.375 34.7853 170.102 35.5978 169.711 36.0736C169.325 36.5548 168.799 36.7928 168.146 36.7928C167.636 36.7928 167.168 36.6738 166.735 36.4307C166.303 36.1926 165.953 35.8305 165.685 35.3544V19.7134C165.891 18.9631 166.251 18.3526 166.761 17.8714C167.265 17.3902 167.821 17.1522 168.413 17.1522C169.042 17.1522 169.525 17.4006 169.865 17.8921C170.21 18.3888 170.447 19.2167 170.581 20.386C170.714 21.5553 170.781 23.2162 170.781 25.3737V28.9282H170.787Z" fill="white"/>
<path d="M185.762 30.5167C185.762 32.2861 185.813 33.6107 185.916 34.4956C186.019 35.3802 186.235 36.0219 186.565 36.4307C186.894 36.8342 187.399 37.0359 188.083 37.0359C189.005 37.0359 189.643 36.6738 189.983 35.9546C190.328 35.2354 190.513 34.0351 190.544 32.3587L195.867 32.6742C195.898 32.9122 195.913 33.2433 195.913 33.6624C195.913 36.2081 195.218 38.1122 193.834 39.3695C192.449 40.6268 190.487 41.2579 187.955 41.2579C184.912 41.2579 182.781 40.3007 181.561 38.3812C180.336 36.4617 179.728 33.497 179.728 29.4818V24.6699C179.728 20.536 180.362 17.5143 181.628 15.6103C182.894 13.7062 185.062 12.7542 188.135 12.7542C190.251 12.7542 191.877 13.1423 193.01 13.9236C194.142 14.7048 194.94 15.9155 195.404 17.5661C195.867 19.2166 196.099 21.4932 196.099 24.4009V29.1197H185.762V30.5167ZM186.544 17.5299C186.23 17.9179 186.024 18.5543 185.916 19.4391C185.813 20.3238 185.762 21.6639 185.762 23.4646V25.441H190.276V23.4646C190.276 21.6949 190.215 20.3549 190.096 19.4391C189.978 18.5233 189.762 17.8817 189.447 17.504C189.134 17.1315 188.65 16.94 187.996 16.94C187.337 16.9452 186.853 17.1418 186.544 17.5299Z" fill="white"/>
</g>
<defs>
<clipPath id="clip0_1_442">
<rect width="197" height="44" fill="white"/>
</clipPath>
</defs>
</svg>
